<?xml version="1.0" standalone="no"?>
<!DOCTYPE svg PUBLIC "-//W3C//DTD SVG 20010904//EN"
 "http://www.w3.org/TR/2001/REC-SVG-20010904/DTD/svg10.dtd">
<svg version="1.0" xmlns="http://www.w3.org/2000/svg"
 width="673.000000pt" height="149.000000pt" viewBox="0 0 673.000000 149.000000"
 preserveAspectRatio="xMidYMid meet">

<g transform="translate(0.000000,149.000000) scale(0.100000,-0.100000)"
fill="#000000" stroke="none">
<path d="M116 1114 c-3 -9 -6 -35 -6 -58 0 -38 6 -47 60 -101 75 -74 78 -96
15 -111 -25 -6 -50 -7 -57 -3 -18 12 -28 -10 -28 -63 0 -38 11 -67 63 -165 35
-65 99 -183 142 -263 42 -80 82 -151 87 -157 12 -15 6 -16 373 44 154 25 284
49 289 54 14 12 -4 32 -19 19 -15 -13 -581 -101 -601 -93 -8 3 -14 18 -14 37
0 25 6 35 24 44 25 11 284 55 391 67 110 11 188 35 209 62 l18 25 -41 42 c-44
45 -49 56 -26 56 20 0 20 -3 -20 97 -19 48 -34 87 -32 89 1 1 40 12 87 24 91
24 129 44 70 37 -19 -2 -151 -35 -293 -71 -143 -37 -262 -65 -265 -62 -3 3
-11 1 -18 -5 -17 -14 -26 35 -15 81 5 19 9 29 10 21 1 -11 6 -10 24 6 14 13
109 44 263 87 213 58 314 90 314 99 0 1 -122 -28 -272 -66 -149 -37 -281 -66
-292 -63 -12 3 -61 35 -111 71 -86 63 -78 51 30 -44 66 -58 39 -40 -57 38 -43
35 -75 68 -71 74 3 5 2 7 -4 4 -5 -4 -56 32 -112 78 -56 47 -104 85 -106 85
-1 0 -6 -7 -9 -16z m191 -599 c25 9 428 26 547 23 l109 -3 1 -55 1 -55 -170 0
c-93 0 -248 2 -342 4 l-173 4 1 56 c1 31 3 48 6 38 3 -12 10 -16 20 -12z"/>
<path d="M1580 660 l0 -410 275 0 275 0 0 80 0 80 -185 0 -185 0 -2 328 -3
327 -87 3 -88 3 0 -411z"/>
<path d="M2237 1063 c-4 -3 -7 -35 -7 -69 0 -74 5 -77 105 -72 l60 3 3 73 3
72 -79 0 c-43 0 -82 -3 -85 -7z"/>
<path d="M4790 660 l0 -410 280 0 280 0 0 80 0 80 -187 2 -188 3 -3 328 -2
327 -90 0 -90 0 0 -410z"/>
<path d="M6082 663 l3 -408 83 -3 c77 -3 82 -2 82 18 0 25 4 25 41 -2 26 -20
43 -23 113 -23 72 0 87 3 119 25 20 14 49 48 64 75 24 45 28 62 31 171 5 151
-11 220 -67 275 -65 65 -188 76 -266 24 l-35 -24 0 139 0 140 -85 0 -85 0 2
-407z m320 26 c30 -16 48 -71 48 -146 0 -117 -50 -178 -126 -153 -46 16 -63
45 -70 121 -7 73 8 141 37 170 21 21 78 26 111 8z"/>
<path d="M2811 839 c-19 -6 -44 -17 -55 -25 -27 -19 -33 -18 -39 6 -4 18 -13
20 -74 20 -37 0 -74 -4 -81 -8 -9 -7 -12 -72 -10 -293 l3 -284 83 -3 82 -3 0
154 c0 197 6 240 38 272 39 39 87 33 134 -18 1 -1 4 -92 7 -202 l6 -200 83 -3
83 -3 -3 239 -3 239 -27 40 c-43 66 -143 97 -227 72z"/>
<path d="M3325 835 c-57 -20 -111 -84 -126 -150 -18 -81 -8 -250 19 -301 19
-37 73 -93 90 -94 4 -1 26 -5 50 -9 53 -11 125 2 163 30 l29 20 0 -31 c0 -17
-6 -46 -14 -64 -33 -79 -113 -89 -213 -25 -21 13 -26 11 -68 -31 -25 -24 -45
-52 -45 -62 0 -25 69 -65 143 -85 52 -13 74 -14 137 -4 104 16 156 49 195 126
l30 59 0 310 0 311 -80 0 c-76 0 -79 -1 -85 -25 -4 -18 -8 -21 -14 -11 -14 22
-88 51 -131 50 -22 0 -58 -6 -80 -14z m182 -150 c25 -17 43 -71 43 -127 0 -47
-27 -116 -51 -128 -24 -13 -65 -13 -91 1 -62 33 -64 222 -1 258 26 15 75 13
100 -4z"/>
<path d="M4015 833 c-77 -28 -115 -60 -144 -122 -23 -50 -26 -68 -26 -166 0
-98 3 -116 26 -166 31 -65 77 -104 145 -125 134 -40 284 9 333 108 45 94 46
270 1 357 -22 44 -70 88 -117 107 -56 24 -162 27 -218 7z m151 -148 c35 -24
46 -67 43 -159 -4 -90 -18 -118 -68 -137 -34 -14 -88 7 -105 39 -36 71 -31
193 11 242 19 23 33 30 62 30 20 0 46 -7 57 -15z"/>
<path d="M5584 840 c-59 -12 -113 -37 -120 -54 -3 -8 7 -38 22 -66 20 -38 32
-49 43 -44 84 36 158 44 206 22 22 -10 48 -62 39 -79 -2 -3 -45 -9 -95 -12
-117 -9 -165 -23 -205 -64 -55 -54 -63 -168 -17 -232 11 -14 39 -36 64 -49 37
-20 55 -23 117 -19 54 3 81 10 102 26 36 26 40 26 40 1 0 -19 5 -21 78 -18
l77 3 3 208 c1 123 -2 224 -8 247 -14 53 -51 94 -102 115 -49 20 -184 28 -244
15z m188 -390 c-3 -49 -40 -80 -95 -80 -58 0 -89 23 -85 63 4 43 36 58 118 55
l65 -3 -3 -35z"/>
<path d="M2242 832 c-9 -7 -12 -72 -10 -293 l3 -284 83 -3 82 -3 -2 293 -3
293 -70 3 c-38 1 -76 -2 -83 -6z"/>
</g>
</svg>
